<?xml version="1.0" encoding="iso-8859-1"?>
<!-- Generator: Adobe Illustrator 19.0.0, SVG Export Plug-In . SVG Version: 6.00 Build 0)  -->
<svg version="1.1" id="Layer_1" xmlns="http://www.w3.org/2000/svg" xmlns:xlink="http://www.w3.org/1999/xlink" x="0px" y="0px"
	 viewBox="0 0 512 512" style="enable-background:new 0 0 512 512;" xml:space="preserve">
<path style="fill:#F7B239;" d="M256.004,56.583c56.331,0,102.006,92.282,102.006,206.134
	c-33.476-8.475-67.741-12.707-102.006-12.707c-34.277,0-68.542,4.232-102.018,12.707C153.986,148.865,199.661,56.583,256.004,56.583
	z"/>
<path style="fill:#E09B2D;" d="M256.004,56.583c-25.779,0-46.819,86.954-48.033,196.198c-18.14,2.122-36.175,5.422-53.985,9.937
	C153.986,148.865,199.661,56.583,256.004,56.583z"/>
<path style="fill:#F95428;" d="M462.138,262.717c-16.738-6.589-34.395-9.889-52.064-9.889s-35.326,3.3-52.064,9.889
	c0-113.852-45.675-206.134-102.006-206.134C369.845,56.583,462.138,148.865,462.138,262.717z"/>
<path style="fill:#E54728;" d="M256.004,56.583c-56.343,0-102.018,92.282-102.018,206.134c-16.726-6.589-34.395-9.889-52.064-9.889
	c-17.657,0-35.326,3.3-52.052,9.889C49.87,148.865,142.152,56.583,256.004,56.583z"/>
<g>
	<path style="fill:#FFFFFF;" d="M428.465,233.185c-4.052,0-7.705-2.803-8.621-6.924c-7.238-32.554-23.943-62.002-48.31-85.161
		c-3.539-3.364-3.681-8.959-0.318-12.498c3.365-3.539,8.959-3.68,12.499-0.317c26.923,25.589,45.384,58.141,53.389,94.138
		c1.06,4.766-1.945,9.489-6.71,10.548C429.746,233.116,429.1,233.185,428.465,233.185z"/>
	<circle style="fill:#FFFFFF;" cx="355.832" cy="117.035" r="8.84"/>
</g>
<path style="fill:#333333;" d="M264.845,47.937V8.84c0-4.882-3.958-8.84-8.84-8.84c-4.882,0-8.84,3.958-8.84,8.84v39.096
	C132.71,52.589,41.027,147.138,41.027,262.714c0,2.924,1.447,5.66,3.864,7.307c1.489,1.014,3.226,1.534,4.977,1.534
	c1.093,0,2.191-0.203,3.238-0.614c31.484-12.394,66.16-12.394,97.644,0c1.721,0.678,3.613,0.798,5.406,0.344
	c29.796-7.536,60.369-11.621,91.009-12.282v217.365c0,9.899-8.053,17.952-17.952,17.952c-4.8,0-9.305-1.866-12.698-5.268
	c-3.388-3.379-5.254-7.884-5.254-12.684c0-4.882-3.958-8.84-8.84-8.84c-4.882,0-8.84,3.958-8.84,8.84
	c0,9.53,3.709,18.48,10.432,25.186c6.721,6.736,15.671,10.447,25.201,10.447c19.648,0,35.633-15.985,35.633-35.633V259.002
	c30.638,0.661,61.208,4.748,91.002,12.282c1.793,0.454,3.685,0.334,5.406-0.344c31.484-12.394,66.16-12.394,97.643,0
	c2.723,1.07,5.797,0.727,8.215-0.919c2.418-1.647,3.864-4.382,3.864-7.307C470.974,147.141,379.296,52.593,264.845,47.937z
	 M162.983,251.493c1.33-49.49,11.436-95.517,28.807-130.616c17.697-35.761,40.502-55.455,64.211-55.455
	c23.71,0,46.513,19.694,64.212,55.455c17.37,35.099,27.477,81.126,28.807,130.616C287.92,237.804,224.081,237.803,162.983,251.493z
	 M59.1,250.191c5.355-85.147,64.97-155.797,144.572-177.717c-10.201,10.439-19.553,24.035-27.731,40.56
	c-18.403,37.186-29.137,85.563-30.614,137.332c-14.181-4.269-28.791-6.409-43.403-6.409C87.515,243.959,73.101,246.037,59.1,250.191
	z M366.673,250.394c-1.473-51.78-12.208-100.166-30.615-137.36c-8.181-16.532-17.537-30.132-27.742-40.573
	C387.925,94.376,447.545,165.038,452.9,250.19C424.706,241.826,394.844,241.913,366.673,250.394z"/>
<g>
</g>
<g>
</g>
<g>
</g>
<g>
</g>
<g>
</g>
<g>
</g>
<g>
</g>
<g>
</g>
<g>
</g>
<g>
</g>
<g>
</g>
<g>
</g>
<g>
</g>
<g>
</g>
<g>
</g>
</svg>
